<svg width="861.025" height="151.012" viewBox="0 0 861.025 151.012" xmlns="http://www.w3.org/2000/svg"><g id="svgGroup" stroke-linecap="round" fill-rule="evenodd" font-size="9pt" stroke="#000" stroke-width="0.25mm" fill="#000" style="stroke:#000;stroke-width:0.25mm;fill:#000"><path d="M 245 124.8 L 245 85.4 A 66.336 66.336 0 0 0 244.311 75.33 C 241.854 59.414 232.963 55 219.8 55 A 27.907 27.907 0 0 0 216.147 55.244 A 33.777 33.777 0 0 0 189.4 76.2 A 33.441 33.441 0 0 0 186.824 67.411 C 182.826 58.829 175.229 55 164.4 55 C 151.8 55 139.6 64 134.2 75.6 L 134.2 55 L 99.2 63 L 99.2 66.4 A 47.661 47.661 0 0 1 100.861 67.332 C 107.648 71.332 109.2 74.9 109.2 81.4 L 109.2 125.2 C 109.2 130.761 109.141 135.727 107.856 139.451 A 9.204 9.204 0 0 1 101.4 145.8 L 101.4 149.2 L 142.4 149.2 L 142.4 145.8 C 135.4 143.8 134.2 136.2 134.2 125.2 L 134.2 85.8 C 134.2 78.6 142.8 69.4 150.2 69.4 A 16.194 16.194 0 0 1 156.98 70.727 C 161.387 72.744 164.067 77.077 164.529 83.834 A 31.761 31.761 0 0 1 164.6 86 L 164.6 124.8 C 164.6 135 164.2 143.6 156.6 145.8 L 156.6 149.2 L 197.8 149.2 L 197.8 145.8 A 9.456 9.456 0 0 1 190.95 138.589 C 190.397 136.774 190.059 134.682 189.86 132.366 A 89.805 89.805 0 0 1 189.6 124.8 L 189.6 86.4 C 189.6 79.251 196.308 71.304 203.016 69.694 A 10.221 10.221 0 0 1 205.4 69.4 C 214.4 69.4 220 74.8 220 86 L 220 124.8 C 220 135 219.6 143.6 212 145.8 L 212 149.2 L 253.2 149.2 L 253.2 145.8 A 9.456 9.456 0 0 1 246.35 138.589 C 245.797 136.774 245.459 134.682 245.26 132.366 A 89.805 89.805 0 0 1 245 124.8 Z M 768.2 130.8 L 768.2 55 L 733.8 58.8 L 733.8 62.2 A 34.033 34.033 0 0 1 737.208 62.748 C 743.808 64.225 743.2 67.565 743.2 78.2 L 743.2 123.4 A 28.079 28.079 0 0 1 738.22 130.175 C 734.293 134.103 729.623 136.38 725.849 136.4 A 9.436 9.436 0 0 1 725.8 136.4 A 26.414 26.414 0 0 1 719.408 135.702 C 713.901 134.324 710.697 130.893 709.52 125.32 A 26.795 26.795 0 0 1 709 119.8 L 709 55 L 673 58.8 L 673 62.2 C 684.507 63.787 684.206 65.571 684.201 77.312 A 603.402 603.402 0 0 0 684.2 77.6 L 684.2 120.4 A 66.396 66.396 0 0 0 684.911 130.637 C 687.376 146.345 696.131 151 709.4 151 A 28.005 28.005 0 0 0 715.434 150.293 C 726.681 147.797 739.147 139.026 743.2 129.4 L 743.2 147 A 1.925 1.925 0 0 0 743.208 147.096 C 743.272 147.741 743.843 151.385 748.517 150.838 A 9.377 9.377 0 0 0 748.8 150.8 L 778.4 145.6 L 778.4 142.2 A 151.215 151.215 0 0 1 777.85 142.134 C 770.966 141.288 768.762 140.443 768.3 134.091 A 46.027 46.027 0 0 1 768.2 130.8 Z M 842.4 97.4 L 822.2 84.8 C 804.8 73.8 810.4 58.4 823.4 58.4 C 842.165 58.4 849.147 73.336 852.208 81.288 A 183.629 183.629 0 0 1 853 83.4 L 856.4 83.4 L 856.4 61 A 8.248 8.248 0 0 0 856.038 60.8 C 854.057 59.759 843.885 55 823.4 55 A 55.007 55.007 0 0 0 817.48 55.31 C 801.882 56.998 795.8 65 795.8 65 C 784.8 79.4 790 95.6 809.4 107.4 L 829.6 119.6 C 843.079 128.467 842.718 143.625 832.564 146.945 A 13.996 13.996 0 0 1 828.2 147.6 C 807.318 147.6 799.975 129.124 796.504 119.605 A 205.222 205.222 0 0 0 795.4 116.6 L 792 116.6 L 792 141.8 A 9.252 9.252 0 0 0 792.317 142.027 C 794.314 143.414 805.762 150.678 826.801 150.99 A 94.542 94.542 0 0 0 828.2 151 C 847.813 151 855.594 141.018 856.166 140.247 A 2.624 2.624 0 0 0 856.2 140.2 A 27.473 27.473 0 0 0 859.928 132.663 C 863.333 121.678 858.697 109.953 847.623 101.074 A 52.277 52.277 0 0 0 842.4 97.4 Z M 294 72 L 294 0 L 259 7.4 L 259 10.8 A 35.254 35.254 0 0 1 262.7 12.366 C 267.829 14.944 269.2 17.969 269.2 23.6 L 269.2 148.2 A 0.974 0.974 0 0 0 270.03 149.162 C 272.914 149.989 282.664 146.06 288.751 140.843 A 28.594 28.594 0 0 0 288.8 140.8 A 32.481 32.481 0 0 0 300.68 148.127 C 305.822 150.014 311.719 151 318 151 C 341.018 151 359.44 141.134 365.268 119.735 A 59.024 59.024 0 0 0 367.2 104.2 C 367.2 86.209 360.718 72.756 351 64.505 A 40.183 40.183 0 0 0 324.8 55 C 316.416 55 304.066 58.814 296.809 67.773 A 26.596 26.596 0 0 0 294 72 Z M 77 124.8 L 77 95 C 77 71.692 69.977 55.407 44.564 55.008 A 61.332 61.332 0 0 0 43.6 55 A 4.049 4.049 0 0 0 43.57 54.998 C 42.953 54.956 32.958 54.352 24.251 58.973 A 27.912 27.912 0 0 0 24.2 59 A 54.381 54.381 0 0 0 19.43 61.815 C 14.024 65.413 11.53 68.74 9.908 71.377 A 117.675 117.675 0 0 0 8.6 73.6 A 10.392 10.392 0 0 0 7.237 78.812 C 7.224 81.111 7.879 83.507 9.2 85.6 A 11.322 11.322 0 0 0 14.705 89.841 C 17.906 90.99 21.573 90.688 24.66 88.814 A 11.94 11.94 0 0 0 25 88.6 A 11.586 11.586 0 0 0 29.377 82.876 C 30.419 79.876 30.189 76.494 28.491 73.572 A 11.547 11.547 0 0 0 28 72.8 C 26.2 70.2 23.6 68.8 20.6 68.4 C 19.242 68.206 19.955 64.997 25.85 61.883 A 27.615 27.615 0 0 1 26.4 61.6 A 21.595 21.595 0 0 1 30.209 60.035 C 42.27 56.438 51.8 66.747 51.8 85.6 L 51.8 98 A 912.412 912.412 0 0 1 51.643 98.039 C 16.75 106.806 0 108.833 0 130.6 A 22.906 22.906 0 0 0 0.569 135.816 C 4.111 151 23 151 23 151 A 38.864 38.864 0 0 0 37.083 148.411 C 41.047 146.865 44.467 144.711 47.09 142.187 A 18.875 18.875 0 0 0 52 134.8 A 19.82 19.82 0 0 0 53.1 139.204 C 57.318 150.276 70.269 150.956 71.843 150.997 A 6.642 6.642 0 0 0 72 151 C 84.6 151 93.8 143.2 95.4 136.8 L 92 135.4 C 90.879 138.578 87.137 138.785 86.652 138.799 A 2.069 2.069 0 0 1 86.6 138.8 A 8.61 8.61 0 0 1 83.821 138.366 C 76.84 136.003 77 124.8 77 124.8 Z M 470.2 119.8 L 470.2 60.2 L 493.2 60.2 L 494 56.8 L 470.2 56.8 L 470.2 25.8 L 445.2 30 L 445.2 56.8 L 434.6 56.8 L 435.2 60.2 L 445.2 60.2 L 445.2 120.4 A 67.699 67.699 0 0 0 445.877 130.484 C 447.902 143.856 454.391 149.223 464.283 150.611 A 44.139 44.139 0 0 0 470.4 151 A 33.753 33.753 0 0 0 493.245 141.083 C 496.277 138.139 498.624 134.834 500 131.6 L 497 129.8 A 12.299 12.299 0 0 1 496.296 130.843 C 494.491 133.251 491.257 135.913 487.123 136.62 A 12.577 12.577 0 0 1 485 136.8 C 475 136.8 470.2 131 470.2 119.8 Z M 614.2 55 A 52.195 52.195 0 0 0 592.98 59.197 C 576.326 66.548 567.042 82.777 566.616 101.638 A 60.331 60.331 0 0 0 566.6 103 C 566.6 125.875 579.712 145.397 603.274 149.983 A 57.135 57.135 0 0 0 614.2 151 C 644.8 151 661.8 129.2 661.8 103 A 49.966 49.966 0 0 0 651.298 71.198 C 645.506 64.067 637.397 58.819 627.169 56.431 A 56.951 56.951 0 0 0 614.2 55 Z M 415.4 124.8 L 415.4 55 L 380.4 63 L 380.4 66.4 A 65.839 65.839 0 0 1 382.452 67.544 C 388.942 71.332 390.6 74.207 390.6 80.4 L 390.6 124.8 A 91.726 91.726 0 0 1 390.317 133.299 C 390.087 135.705 389.675 137.881 388.939 139.741 A 9.642 9.642 0 0 1 382.6 145.8 L 382.6 149.2 L 423.6 149.2 L 423.6 145.8 A 9.784 9.784 0 0 1 416.67 138.323 C 416.151 136.55 415.833 134.515 415.646 132.25 A 91.822 91.822 0 0 1 415.4 124.8 Z M 542.6 124.8 L 542.6 55 L 507.6 63 L 507.6 66.4 A 65.839 65.839 0 0 1 509.652 67.544 C 516.142 71.332 517.8 74.207 517.8 80.4 L 517.8 124.8 A 91.726 91.726 0 0 1 517.517 133.299 C 517.287 135.705 516.875 137.881 516.139 139.741 A 9.642 9.642 0 0 1 509.8 145.8 L 509.8 149.2 L 550.8 149.2 L 550.8 145.8 A 9.784 9.784 0 0 1 543.87 138.323 C 543.351 136.55 543.033 134.515 542.846 132.25 A 91.822 91.822 0 0 1 542.6 124.8 Z M 604.978 145.543 A 17.354 17.354 0 0 0 614.2 147.6 A 34.078 34.078 0 0 0 615.244 147.584 C 627.041 147.223 631.157 140.442 632.018 115.31 A 362.859 362.859 0 0 0 632.2 103 C 632.2 76.097 630.212 64.549 623.28 60.391 A 17.334 17.334 0 0 0 614.2 58.4 C 601.6 58.4 597.116 64.831 596.192 90.69 A 347.73 347.73 0 0 0 596 103 A 446.926 446.926 0 0 0 596.025 107.805 C 596.277 131.168 598.505 141.591 604.978 145.543 Z M 294 114.2 L 294 88.8 C 294 75.196 300.608 64.346 313.121 63.459 A 23.739 23.739 0 0 1 314.8 63.4 A 18.915 18.915 0 0 1 332.896 72.678 C 336.765 79.283 338.6 89.863 338.6 105.8 A 162.616 162.616 0 0 1 338.138 118.754 C 337.425 127.613 335.873 134.149 333.38 138.737 A 16.144 16.144 0 0 1 317.8 147.6 A 23.254 23.254 0 0 1 315.237 147.459 C 306.086 146.444 296.934 139.796 294.58 123.049 A 63.649 63.649 0 0 1 294 114.2 Z M 51.8 128.6 C 50 133.4 45.4 138.8 38.6 138.8 A 16.25 16.25 0 0 1 35.402 138.499 C 26.029 136.621 25.619 126.538 25.601 125.661 A 3.349 3.349 0 0 1 25.6 125.6 A 19.559 19.559 0 0 1 31.255 111.523 C 34.649 108.025 39.749 105.03 47.022 102.845 A 69.593 69.593 0 0 1 51.8 101.6 L 51.8 128.6 Z M 414.8 25.4 C 414.8 17.8 408.6 11.8 401 11.8 A 13.478 13.478 0 0 0 387.428 24.517 A 14.299 14.299 0 0 0 387.4 25.4 A 13.478 13.478 0 0 0 400.117 38.973 A 14.299 14.299 0 0 0 401 39 C 408.6 39 414.8 33 414.8 25.4 Z M 542 25.4 C 542 17.8 535.8 11.8 528.2 11.8 A 13.478 13.478 0 0 0 514.628 24.517 A 14.299 14.299 0 0 0 514.6 25.4 A 13.478 13.478 0 0 0 527.317 38.973 A 14.299 14.299 0 0 0 528.2 39 C 535.8 39 542 33 542 25.4 Z" vector-effect="non-scaling-stroke"/></g></svg>