<svg id="visual" viewBox="0 0 200 200" width="200" height="200" xmlns="http://www.w3.org/2000/svg" xmlns:xlink="http://www.w3.org/1999/xlink" version="1.1"><g transform="translate(99.82802960530742 104.65647416751324)"><path d="M44.2 -59.5C52.4 -45.8 50.8 -27.2 56.3 -8.2C61.7 10.9 74.1 30.4 71 45.8C67.9 61.2 49.2 72.4 31.7 72.4C14.3 72.4 -1.9 61.1 -14.2 51.3C-26.5 41.5 -34.9 33.3 -45.7 22.5C-56.4 11.8 -69.6 -1.4 -71 -15.9C-72.5 -30.4 -62.3 -46.2 -48.5 -59C-34.7 -71.7 -17.4 -81.3 0.3 -81.7C18 -82.1 36 -73.2 44.2 -59.5" fill="#f7ab75"></path></g></svg>