<svg id="visual" viewBox="0 0 500 500" width="500" height="500" xmlns="http://www.w3.org/2000/svg" xmlns:xlink="http://www.w3.org/1999/xlink" version="1.1"><g transform="translate(256.2699816027369 270.68142240284334)"><path d="M144.8 -170.8C183.4 -140.3 207.4 -90.5 205.7 -44.5C203.9 1.5 176.4 43.7 149.5 82.5C122.6 121.2 96.2 156.5 64.2 161.9C32.1 167.3 -5.5 142.8 -53.2 131.7C-100.9 120.6 -158.7 122.8 -190.3 96.2C-221.8 69.7 -227.1 14.3 -204.4 -22.4C-181.7 -59.2 -131 -77.5 -92.3 -108C-53.6 -138.5 -26.8 -181.3 13.2 -197C53.1 -212.7 106.3 -201.3 144.8 -170.8" fill="#aa6535"></path></g></svg>